MatrixSansVideo-Regular.ufo
<glyph name="period" format="2">
  <advance width="200"/>
  <unicode hex="002E"/>
  <outline>
    <contour>
      <point x="50.0" y="0.0" type="line"/>
      <point x="50.0" y="100.0" type="line"/>
      <point x="150.0" y="100.0" type="line"/>
      <point x="150.0" y="0.0" type="line"/>
    </contour>
  </outline>
</glyph>
<glyph name="bracketleft" format="2">
  <advance width="400"/>
  <unicode hex="005B"/>
  <outline>
    <contour>
      <point x="350.0" y="0.0" type="line"/>
      <point x="50.0" y="0.0" type="line"/>
      <point x="50.0" y="700.0" type="line"/>
      <point x="350.0" y="700.0" type="line"/>
      <point x="350.0" y="600.0" type="line"/>
      <point x="150.0" y="600.0" type="line"/>
      <point x="150.0" y="100.0" type="line"/>
      <point x="350.0" y="100.0" type="line"/>
    </contour>
  </outline>
</glyph>
<glyph name="uni00B3" format="2">
  <advance width="400"/>
  <unicode hex="00B3"/>
  <outline>
    <contour>
      <point x="50.0" y="200.0" type="line"/>
      <point x="50.0" y="300.0" type="line"/>
      <point x="200.0" y="300.0" type="line"/>
      <point x="200.0" y="400.0" type="line"/>
      <point x="50.0" y="400.0" type="line"/>
      <point x="50.0" y="500.0" type="line"/>
      <point x="200.0" y="500.0" type="line"/>
      <point x="200.0" y="600.0" type="line"/>
      <point x="50.0" y="600.0" type="line"/>
      <point x="50.0" y="700.0" type="line"/>
      <point x="250.0" y="700.0" type="line"/>
      <point x="250.0" y="650.0" type="line"/>
      <point x="300.0" y="650.0" type="line"/>
      <point x="300.0" y="600.0" type="line"/>
      <point x="350.0" y="600.0" type="line"/>
      <point x="350.0" y="500.0" type="line"/>
      <point x="300.0" y="500.0" type="line"/>
      <point x="300.0" y="400.0" type="line"/>
      <point x="350.0" y="400.0" type="line"/>
      <point x="350.0" y="300.0" type="line"/>
      <point x="300.0" y="300.0" type="line"/>
      <point x="300.0" y="250.0" type="line"/>
      <point x="250.0" y="250.0" type="line"/>
      <point x="250.0" y="200.0" type="line"/>
    </contour>
  </outline>
</glyph>
<glyph name="uni01B3" format="2">
  <advance width="700"/>
  <unicode hex="01B3"/>
  <outline>
    <contour>
      <point x="250.0" y="0.0" type="line"/>
      <point x="250.0" y="350.0" type="line"/>
      <point x="200.0" y="350.0" type="line"/>
      <point x="200.0" y="400.0" type="line"/>
      <point x="150.0" y="400.0" type="line"/>
      <point x="150.0" y="450.0" type="line"/>
      <point x="100.0" y="450.0" type="line"/>
      <point x="100.0" y="500.0" type="line"/>
      <point x="50.0" y="500.0" type="line"/>
      <point x="50.0" y="700.0" type="line"/>
      <point x="150.0" y="700.0" type="line"/>
      <point x="150.0" y="550.0" type="line"/>
      <point x="200.0" y="550.0" type="line"/>
      <point x="200.0" y="500.0" type="line"/>
      <point x="250.0" y="500.0" type="line"/>
      <point x="250.0" y="450.0" type="line"/>
      <point x="350.0" y="450.0" type="line"/>
      <point x="350.0" y="600.0" type="line"/>
      <point x="400.0" y="600.0" type="line"/>
      <point x="400.0" y="650.0" type="line"/>
      <point x="450.0" y="650.0" type="line"/>
      <point x="450.0" y="700.0" type="line"/>
      <point x="550.0" y="700.0" type="line"/>
      <point x="550.0" y="650.0" type="line"/>
      <point x="600.0" y="650.0" type="line"/>
      <point x="600.0" y="600.0" type="line"/>
      <point x="650.0" y="600.0" type="line"/>
      <point x="650.0" y="400.0" type="line"/>
      <point x="550.0" y="400.0" type="line"/>
      <point x="550.0" y="550.0" type="line"/>
      <point x="450.0" y="550.0" type="line"/>
      <point x="450.0" y="400.0" type="line"/>
      <point x="400.0" y="400.0" type="line"/>
      <point x="400.0" y="350.0" type="line"/>
      <point x="350.0" y="350.0" type="line"/>
      <point x="350.0" y="0.0" type="line"/>
    </contour>
  </outline>
</glyph>
<glyph name="Udieresismacron" format="2">
  <advance width="600"/>
  <unicode hex="01D5"/>
  <outline>
    <contour>
      <point x="150.0" y="600.0" type="line"/>
      <point x="150.0" y="150.0" type="line"/>
      <point x="200.0" y="150.0" type="line"/>
      <point x="200.0" y="100.0" type="line"/>
      <point x="400.0" y="100.0" type="line"/>
      <point x="400.0" y="150.0" type="line"/>
      <point x="450.0" y="150.0" type="line"/>
      <point x="450.0" y="600.0" type="line"/>
      <point x="550.0" y="600.0" type="line"/>
      <point x="550.0" y="100.0" type="line"/>
      <point x="500.0" y="100.0" type="line"/>
      <point x="500.0" y="50.0" type="line"/>
      <point x="450.0" y="50.0" type="line"/>
      <point x="450.0" y="0.0" type="line"/>
      <point x="150.0" y="0.0" type="line"/>
      <point x="150.0" y="50.0" type="line"/>
      <point x="100.0" y="50.0" type="line"/>
      <point x="100.0" y="100.0" type="line"/>
      <point x="50.0" y="100.0" type="line"/>
      <point x="50.0" y="600.0" type="line"/>
    </contour>
    <component base="macroncomb" xOffset="300.0" yOffset="300.0"/>
    <component base="dieresiscomb" xOffset="300.0" yOffset="100.0"/>
  </outline>
</glyph>
<glyph name="nhookleft" format="2">
  <advance width="700"/>
  <unicode hex="0272"/>
  <outline>
    <contour>
      <point x="50.0" y="-200.0" type="line"/>
      <point x="50.0" y="-100.0" type="line"/>
      <point x="100.0" y="-100.0" type="line"/>
      <point x="100.0" y="-50.0" type="line"/>
      <point x="150.0" y="-50.0" type="line"/>
      <point x="150.0" y="500.0" type="line"/>
      <point x="250.0" y="500.0" type="line"/>
      <point x="250.0" y="400.0" type="line"/>
      <point x="300.0" y="400.0" type="line"/>
      <point x="300.0" y="450.0" type="line"/>
      <point x="350.0" y="450.0" type="line"/>
      <point x="350.0" y="500.0" type="line"/>
      <point x="550.0" y="500.0" type="line"/>
      <point x="550.0" y="450.0" type="line"/>
      <point x="600.0" y="450.0" type="line"/>
      <point x="600.0" y="400.0" type="line"/>
      <point x="650.0" y="400.0" type="line"/>
      <point x="650.0" y="0.0" type="line"/>
      <point x="550.0" y="0.0" type="line"/>
      <point x="550.0" y="350.0" type="line"/>
      <point x="500.0" y="350.0" type="line"/>
      <point x="500.0" y="400.0" type="line"/>
      <point x="400.0" y="400.0" type="line"/>
      <point x="400.0" y="350.0" type="line"/>
      <point x="350.0" y="350.0" type="line"/>
      <point x="350.0" y="300.0" type="line"/>
      <point x="250.0" y="300.0" type="line"/>
      <point x="250.0" y="-100.0" type="line"/>
      <point x="200.0" y="-100.0" type="line"/>
      <point x="200.0" y="-150.0" type="line"/>
      <point x="150.0" y="-150.0" type="line"/>
      <point x="150.0" y="-200.0" type="line"/>
    </contour>
  </outline>
</glyph>
<glyph name="breve" format="2">
  <advance width="600"/>
  <unicode hex="02D8"/>
  <outline>
    <contour>
      <point x="50.0" y="700.0" type="line"/>
      <point x="50.0" y="800.0" type="line"/>
      <point x="150.0" y="800.0" type="line"/>
      <point x="150.0" y="750.0" type="line"/>
      <point x="200.0" y="750.0" type="line"/>
      <point x="200.0" y="700.0" type="line"/>
      <point x="400.0" y="700.0" type="line"/>
      <point x="400.0" y="750.0" type="line"/>
      <point x="450.0" y="750.0" type="line"/>
      <point x="450.0" y="800.0" type="line"/>
      <point x="550.0" y="800.0" type="line"/>
      <point x="550.0" y="700.0" type="line"/>
      <point x="500.0" y="700.0" type="line"/>
      <point x="500.0" y="650.0" type="line"/>
      <point x="450.0" y="650.0" type="line"/>
      <point x="450.0" y="600.0" type="line"/>
      <point x="150.0" y="600.0" type="line"/>
      <point x="150.0" y="650.0" type="line"/>
      <point x="100.0" y="650.0" type="line"/>
      <point x="100.0" y="700.0" type="line"/>
    </contour>
  </outline>
</glyph>
<glyph name="ring" format="2">
  <advance width="400"/>
  <unicode hex="02DA"/>
  <outline>
    <contour>
      <point x="50.0" y="600.0" type="line"/>
      <point x="50.0" y="700.0" type="line"/>
      <point x="100.0" y="700.0" type="line"/>
      <point x="100.0" y="750.0" type="line"/>
      <point x="150.0" y="750.0" type="line"/>
      <point x="150.0" y="800.0" type="line"/>
      <point x="250.0" y="800.0" type="line"/>
      <point x="250.0" y="750.0" type="line"/>
      <point x="300.0" y="750.0" type="line"/>
      <point x="300.0" y="700.0" type="line"/>
      <point x="350.0" y="700.0" type="line"/>
      <point x="350.0" y="600.0" type="line"/>
      <point x="300.0" y="600.0" type="line"/>
      <point x="300.0" y="550.0" type="line"/>
      <point x="250.0" y="550.0" type="line"/>
      <point x="250.0" y="500.0" type="line"/>
      <point x="150.0" y="500.0" type="line"/>
      <point x="150.0" y="550.0" type="line"/>
      <point x="100.0" y="550.0" type="line"/>
      <point x="100.0" y="600.0" type="line"/>
    </contour>
    <contour>
      <point x="250.0" y="600.0" type="line"/>
      <point x="250.0" y="700.0" type="line"/>
      <point x="150.0" y="700.0" type="line"/>
      <point x="150.0" y="600.0" type="line"/>
    </contour>
  </outline>
</glyph>
<glyph name="hookabovecomb" format="2">
  <unicode hex="0309"/>
  <outline>
    <contour>
      <point x="-150.0" y="700.0" type="line"/>
      <point x="-150.0" y="800.0" type="line"/>
      <point x="50.0" y="800.0" type="line"/>
      <point x="50.0" y="600.0" type="line"/>
      <point x="-50.0" y="600.0" type="line"/>
      <point x="-50.0" y="700.0" type="line"/>
    </contour>
  </outline>
</glyph>
<glyph name="dotbelowcomb" format="2">
  <unicode hex="0323"/>
  <outline>
    <contour>
      <point x="-50.0" y="-200.0" type="line"/>
      <point x="-50.0" y="-100.0" type="line"/>
      <point x="50.0" y="-100.0" type="line"/>
      <point x="50.0" y="-200.0" type="line"/>
    </contour>
  </outline>
</glyph>
<glyph name="macronbelowcomb" format="2">
  <unicode hex="0331"/>
  <outline>
    <contour>
      <point x="-150.0" y="-200.0" type="line"/>
      <point x="-150.0" y="-100.0" type="line"/>
      <point x="150.0" y="-100.0" type="line"/>
      <point x="150.0" y="-200.0" type="line"/>
    </contour>
  </outline>
</glyph>
<glyph name="Lje-cy" format="2">
  <advance width="800"/>
  <unicode hex="0409"/>
  <outline>
    <contour>
      <point x="50.0" y="0.0" type="line"/>
      <point x="50.0" y="100.0" type="line"/>
      <point x="100.0" y="100.0" type="line"/>
      <point x="100.0" y="150.0" type="line"/>
      <point x="150.0" y="150.0" type="line"/>
      <point x="150.0" y="600.0" type="line"/>
      <point x="200.0" y="600.0" type="line"/>
      <point x="200.0" y="650.0" type="line"/>
      <point x="250.0" y="650.0" type="line"/>
      <point x="250.0" y="700.0" type="line"/>
      <point x="450.0" y="700.0" type="line"/>
      <point x="450.0" y="400.0" type="line"/>
      <point x="650.0" y="400.0" type="line"/>
      <point x="650.0" y="350.0" type="line"/>
      <point x="700.0" y="350.0" type="line"/>
      <point x="700.0" y="300.0" type="line"/>
      <point x="750.0" y="300.0" type="line"/>
      <point x="750.0" y="100.0" type="line"/>
      <point x="700.0" y="100.0" type="line"/>
      <point x="700.0" y="50.0" type="line"/>
      <point x="650.0" y="50.0" type="line"/>
      <point x="650.0" y="0.0" type="line"/>
      <point x="350.0" y="0.0" type="line"/>
      <point x="350.0" y="600.0" type="line"/>
      <point x="300.0" y="600.0" type="line"/>
      <point x="300.0" y="550.0" type="line"/>
      <point x="250.0" y="550.0" type="line"/>
      <point x="250.0" y="100.0" type="line"/>
      <point x="200.0" y="100.0" type="line"/>
      <point x="200.0" y="50.0" type="line"/>
      <point x="150.0" y="50.0" type="line"/>
      <point x="150.0" y="0.0" type="line"/>
    </contour>
    <contour>
      <point x="450.0" y="100.0" type="line"/>
      <point x="600.0" y="100.0" type="line"/>
      <point x="600.0" y="150.0" type="line"/>
      <point x="650.0" y="150.0" type="line"/>
      <point x="650.0" y="250.0" type="line"/>
      <point x="600.0" y="250.0" type="line"/>
      <point x="600.0" y="300.0" type="line"/>
      <point x="450.0" y="300.0" type="line"/>
    </contour>
  </outline>
</glyph>
<glyph name="El-cy" format="2">
  <advance width="600"/>
  <unicode hex="041B"/>
  <outline>
    <contour>
      <point x="50.0" y="0.0" type="line"/>
      <point x="50.0" y="100.0" type="line"/>
      <point x="100.0" y="100.0" type="line"/>
      <point x="100.0" y="150.0" type="line"/>
      <point x="150.0" y="150.0" type="line"/>
      <point x="150.0" y="600.0" type="line"/>
      <point x="200.0" y="600.0" type="line"/>
      <point x="200.0" y="650.0" type="line"/>
      <point x="250.0" y="650.0" type="line"/>
      <point x="250.0" y="700.0" type="line"/>
      <point x="550.0" y="700.0" type="line"/>
      <point x="550.0" y="0.0" type="line"/>
      <point x="450.0" y="0.0" type="line"/>
      <point x="450.0" y="600.0" type="line"/>
      <point x="300.0" y="600.0" type="line"/>
      <point x="300.0" y="550.0" type="line"/>
      <point x="250.0" y="550.0" type="line"/>
      <point x="250.0" y="100.0" type="line"/>
      <point x="200.0" y="100.0" type="line"/>
      <point x="200.0" y="50.0" type="line"/>
      <point x="150.0" y="50.0" type="line"/>
      <point x="150.0" y="0.0" type="line"/>
    </contour>
  </outline>
</glyph>
<glyph name="Gestroke-cy" format="2">
  <advance width="600"/>
  <unicode hex="0492"/>
  <outline>
    <contour>
      <point x="50.0" y="300.0" type="line"/>
      <point x="50.0" y="400.0" type="line"/>
      <point x="150.0" y="400.0" type="line"/>
      <point x="150.0" y="700.0" type="line"/>
      <point x="550.0" y="700.0" type="line"/>
      <point x="550.0" y="600.0" type="line"/>
      <point x="250.0" y="600.0" type="line"/>
      <point x="250.0" y="400.0" type="line"/>
      <point x="450.0" y="400.0" type="line"/>
      <point x="450.0" y="300.0" type="line"/>
      <point x="250.0" y="300.0" type="line"/>
      <point x="250.0" y="0.0" type="line"/>
      <point x="150.0" y="0.0" type="line"/>
      <point x="150.0" y="300.0" type="line"/>
    </contour>
  </outline>
</glyph>
<glyph name="uni05DA" format="2">
  <advance width="600"/>
  <unicode hex="05DA"/>
  <outline>
    <contour>
      <point x="50.0" y="500.0" type="line"/>
      <point x="50.0" y="600.0" type="line"/>
      <point x="450.0" y="600.0" type="line"/>
      <point x="450.0" y="550.0" type="line"/>
      <point x="500.0" y="550.0" type="line"/>
      <point x="500.0" y="500.0" type="line"/>
      <point x="550.0" y="500.0" type="line"/>
      <point x="550.0" y="-200.0" type="line"/>
      <point x="450.0" y="-200.0" type="line"/>
      <point x="450.0" y="450.0" type="line"/>
      <point x="400.0" y="450.0" type="line"/>
      <point x="400.0" y="500.0" type="line"/>
    </contour>
  </outline>
</glyph>
<glyph name="uni10B1" format="2">
  <advance width="600"/>
  <unicode hex="10B1"/>
  <outline>
    <contour>
      <point x="450.0" y="0.0" type="line"/>
      <point x="150.0" y="0.0" type="line"/>
      <point x="150.0" y="50.0" type="line"/>
      <point x="100.0" y="50.0" type="line"/>
      <point x="100.0" y="100.0" type="line"/>
      <point x="50.0" y="100.0" type="line"/>
      <point x="50.0" y="700.0" type="line"/>
      <point x="150.0" y="700.0" type="line"/>
      <point x="150.0" y="150.0" type="line"/>
      <point x="200.0" y="150.0" type="line"/>
      <point x="200.0" y="100.0" type="line"/>
      <point x="400.0" y="100.0" type="line"/>
      <point x="400.0" y="150.0" type="line"/>
      <point x="450.0" y="150.0" type="line"/>
      <point x="450.0" y="200.0" type="line"/>
      <point x="550.0" y="200.0" type="line"/>
      <point x="550.0" y="100.0" type="line"/>
      <point x="500.0" y="100.0" type="line"/>
      <point x="500.0" y="50.0" type="line"/>
      <point x="450.0" y="50.0" type="line"/>
    </contour>
  </outline>
</glyph>
<glyph name="uni10B2" format="2">
  <advance width="600"/>
  <unicode hex="10B2"/>
  <outline>
    <contour>
      <point x="550.0" y="0.0" type="line"/>
      <point x="50.0" y="0.0" type="line"/>
      <point x="50.0" y="700.0" type="line"/>
      <point x="450.0" y="700.0" type="line"/>
      <point x="450.0" y="650.0" type="line"/>
      <point x="500.0" y="650.0" type="line"/>
      <point x="500.0" y="600.0" type="line"/>
      <point x="550.0" y="600.0" type="line"/>
      <point x="550.0" y="400.0" type="line"/>
      <point x="500.0" y="400.0" type="line"/>
      <point x="500.0" y="350.0" type="line"/>
      <point x="450.0" y="350.0" type="line"/>
      <point x="450.0" y="300.0" type="line"/>
      <point x="150.0" y="300.0" type="line"/>
      <point x="150.0" y="100.0" type="line"/>
      <point x="550.0" y="100.0" type="line"/>
    </contour>
    <contour>
      <point x="150.0" y="400.0" type="line"/>
      <point x="400.0" y="400.0" type="line"/>
      <point x="400.0" y="450.0" type="line"/>
      <point x="450.0" y="450.0" type="line"/>
      <point x="450.0" y="550.0" type="line"/>
      <point x="400.0" y="550.0" type="line"/>
      <point x="400.0" y="600.0" type="line"/>
      <point x="150.0" y="600.0" type="line"/>
    </contour>
  </outline>
</glyph>
<glyph name="uni1E2B" format="2">
  <advance width="600"/>
  <unicode hex="1E2B"/>
  <outline>
    <contour>
      <point x="150.0" y="700.0" type="line"/>
      <point x="150.0" y="400.0" type="line"/>
      <point x="250.0" y="400.0" type="line"/>
      <point x="250.0" y="500.0" type="line"/>
      <point x="450.0" y="500.0" type="line"/>
      <point x="450.0" y="400.0" type="line"/>
      <point x="550.0" y="400.0" type="line"/>
      <point x="550.0" y="100.0" type="line"/>
      <point x="450.0" y="100.0" type="line"/>
      <point x="450.0" y="400.0" type="line"/>
      <point x="250.0" y="400.0" type="line"/>
      <point x="250.0" y="300.0" type="line"/>
      <point x="150.0" y="300.0" type="line"/>
      <point x="150.0" y="100.0" type="line"/>
      <point x="50.0" y="100.0" type="line"/>
      <point x="50.0" y="700.0" type="line"/>
    </contour>
    <component base="uni032E" xOffset="300.0" yOffset="100.0"/>
  </outline>
</glyph>
<glyph name="bullet" format="2">
  <advance width="400"/>
  <unicode hex="2022"/>
  <outline>
    <contour>
      <point x="100.0" y="500.0" type="line"/>
      <point x="300.0" y="500.0" type="line"/>
      <point x="300.0" y="450.0" type="line"/>
      <point x="350.0" y="450.0" type="line"/>
      <point x="350.0" y="250.0" type="line"/>
      <point x="300.0" y="250.0" type="line"/>
      <point x="300.0" y="200.0" type="line"/>
      <point x="100.0" y="200.0" type="line"/>
      <point x="100.0" y="250.0" type="line"/>
      <point x="50.0" y="250.0" type="line"/>
      <point x="50.0" y="450.0" type="line"/>
      <point x="100.0" y="450.0" type="line"/>
    </contour>
  </outline>
</glyph>
<glyph name="arrowright" format="2">
  <advance width="800"/>
  <unicode hex="2192"/>
  <outline>
    <contour>
      <point x="450.0" y="100.0" type="line"/>
      <point x="450.0" y="200.0" type="line"/>
      <point x="500.0" y="200.0" type="line"/>
      <point x="500.0" y="250.0" type="line"/>
      <point x="550.0" y="250.0" type="line"/>
      <point x="550.0" y="300.0" type="line"/>
      <point x="50.0" y="300.0" type="line"/>
      <point x="50.0" y="400.0" type="line"/>
      <point x="550.0" y="400.0" type="line"/>
      <point x="550.0" y="450.0" type="line"/>
      <point x="500.0" y="450.0" type="line"/>
      <point x="500.0" y="500.0" type="line"/>
      <point x="450.0" y="500.0" type="line"/>
      <point x="450.0" y="600.0" type="line"/>
      <point x="550.0" y="600.0" type="line"/>
      <point x="550.0" y="550.0" type="line"/>
      <point x="600.0" y="550.0" type="line"/>
      <point x="600.0" y="500.0" type="line"/>
      <point x="650.0" y="500.0" type="line"/>
      <point x="650.0" y="400.0" type="line"/>
      <point x="750.0" y="400.0" type="line"/>
      <point x="750.0" y="300.0" type="line"/>
      <point x="650.0" y="300.0" type="line"/>
      <point x="650.0" y="200.0" type="line"/>
      <point x="600.0" y="200.0" type="line"/>
      <point x="600.0" y="150.0" type="line"/>
      <point x="550.0" y="150.0" type="line"/>
      <point x="550.0" y="100.0" type="line"/>
    </contour>
  </outline>
</glyph>
<glyph name="uni2219" format="2">
  <advance width="200"/>
  <unicode hex="2219"/>
  <outline>
    <contour>
      <point x="50.0" y="300.0" type="line"/>
      <point x="50.0" y="400.0" type="line"/>
      <point x="150.0" y="400.0" type="line"/>
      <point x="150.0" y="300.0" type="line"/>
    </contour>
  </outline>
</glyph>
<glyph name="triagup" format="2">
  <advance width="800"/>
  <unicode hex="25B2"/>
  <outline>
    <contour>
      <point x="750.0" y="0.0" type="line"/>
      <point x="50.0" y="0.0" type="line"/>
      <point x="50.0" y="200.0" type="line"/>
      <point x="100.0" y="200.0" type="line"/>
      <point x="100.0" y="250.0" type="line"/>
      <point x="150.0" y="250.0" type="line"/>
      <point x="150.0" y="400.0" type="line"/>
      <point x="200.0" y="400.0" type="line"/>
      <point x="200.0" y="450.0" type="line"/>
      <point x="250.0" y="450.0" type="line"/>
      <point x="250.0" y="600.0" type="line"/>
      <point x="300.0" y="600.0" type="line"/>
      <point x="300.0" y="650.0" type="line"/>
      <point x="350.0" y="650.0" type="line"/>
      <point x="350.0" y="700.0" type="line"/>
      <point x="450.0" y="700.0" type="line"/>
      <point x="450.0" y="650.0" type="line"/>
      <point x="500.0" y="650.0" type="line"/>
      <point x="500.0" y="600.0" type="line"/>
      <point x="550.0" y="600.0" type="line"/>
      <point x="550.0" y="450.0" type="line"/>
      <point x="600.0" y="450.0" type="line"/>
      <point x="600.0" y="400.0" type="line"/>
      <point x="650.0" y="400.0" type="line"/>
      <point x="650.0" y="250.0" type="line"/>
      <point x="700.0" y="250.0" type="line"/>
      <point x="700.0" y="200.0" type="line"/>
      <point x="750.0" y="200.0" type="line"/>
    </contour>
  </outline>
</glyph>
<glyph name="rightBlackTriangle" format="2">
  <advance width="800"/>
  <unicode hex="25B6"/>
  <outline>
    <contour>
      <point x="250.0" y="0.0" type="line"/>
      <point x="50.0" y="0.0" type="line"/>
      <point x="50.0" y="700.0" type="line"/>
      <point x="250.0" y="700.0" type="line"/>
      <point x="250.0" y="650.0" type="line"/>
      <point x="300.0" y="650.0" type="line"/>
      <point x="300.0" y="600.0" type="line"/>
      <point x="450.0" y="600.0" type="line"/>
      <point x="450.0" y="550.0" type="line"/>
      <point x="500.0" y="550.0" type="line"/>
      <point x="500.0" y="500.0" type="line"/>
      <point x="650.0" y="500.0" type="line"/>
      <point x="650.0" y="450.0" type="line"/>
      <point x="700.0" y="450.0" type="line"/>
      <point x="700.0" y="400.0" type="line"/>
      <point x="750.0" y="400.0" type="line"/>
      <point x="750.0" y="300.0" type="line"/>
      <point x="700.0" y="300.0" type="line"/>
      <point x="700.0" y="250.0" type="line"/>
      <point x="650.0" y="250.0" type="line"/>
      <point x="650.0" y="200.0" type="line"/>
      <point x="500.0" y="200.0" type="line"/>
      <point x="500.0" y="150.0" type="line"/>
      <point x="450.0" y="150.0" type="line"/>
      <point x="450.0" y="100.0" type="line"/>
      <point x="300.0" y="100.0" type="line"/>
      <point x="300.0" y="50.0" type="line"/>
      <point x="250.0" y="50.0" type="line"/>
    </contour>
  </outline>
</glyph>
<glyph name="uni25C3" format="2">
  <advance width="500"/>
  <unicode hex="25C3"/>
  <outline>
    <contour>
      <point x="50.0" y="300.0" type="line"/>
      <point x="50.0" y="400.0" type="line"/>
      <point x="100.0" y="400.0" type="line"/>
      <point x="100.0" y="450.0" type="line"/>
      <point x="150.0" y="450.0" type="line"/>
      <point x="150.0" y="500.0" type="line"/>
      <point x="200.0" y="500.0" type="line"/>
      <point x="200.0" y="550.0" type="line"/>
      <point x="250.0" y="550.0" type="line"/>
      <point x="250.0" y="600.0" type="line"/>
      <point x="450.0" y="600.0" type="line"/>
      <point x="450.0" y="100.0" type="line"/>
      <point x="250.0" y="100.0" type="line"/>
      <point x="250.0" y="150.0" type="line"/>
      <point x="200.0" y="150.0" type="line"/>
      <point x="200.0" y="200.0" type="line"/>
      <point x="150.0" y="200.0" type="line"/>
      <point x="150.0" y="250.0" type="line"/>
      <point x="100.0" y="250.0" type="line"/>
      <point x="100.0" y="300.0" type="line"/>
    </contour>
    <contour>
      <point x="350.0" y="200.0" type="line"/>
      <point x="350.0" y="500.0" type="line"/>
      <point x="300.0" y="500.0" type="line"/>
      <point x="300.0" y="450.0" type="line"/>
      <point x="250.0" y="450.0" type="line"/>
      <point x="250.0" y="400.0" type="line"/>
      <point x="200.0" y="400.0" type="line"/>
      <point x="200.0" y="300.0" type="line"/>
      <point x="250.0" y="300.0" type="line"/>
      <point x="250.0" y="250.0" type="line"/>
      <point x="300.0" y="250.0" type="line"/>
      <point x="300.0" y="200.0" type="line"/>
    </contour>
  </outline>
</glyph>
<glyph name="H18533" format="2">
  <advance width="800"/>
  <unicode hex="25CF"/>
  <outline>
    <contour>
      <point x="550.0" y="0.0" type="line"/>
      <point x="250.0" y="0.0" type="line"/>
      <point x="250.0" y="100.0" type="line"/>
      <point x="150.0" y="100.0" type="line"/>
      <point x="150.0" y="200.0" type="line"/>
      <point x="50.0" y="200.0" type="line"/>
      <point x="50.0" y="500.0" type="line"/>
      <point x="150.0" y="500.0" type="line"/>
      <point x="150.0" y="600.0" type="line"/>
      <point x="250.0" y="600.0" type="line"/>
      <point x="250.0" y="700.0" type="line"/>
      <point x="550.0" y="700.0" type="line"/>
      <point x="550.0" y="600.0" type="line"/>
      <point x="650.0" y="600.0" type="line"/>
      <point x="650.0" y="500.0" type="line"/>
      <point x="750.0" y="500.0" type="line"/>
      <point x="750.0" y="200.0" type="line"/>
      <point x="650.0" y="200.0" type="line"/>
      <point x="650.0" y="100.0" type="line"/>
      <point x="550.0" y="100.0" type="line"/>
    </contour>
  </outline>
</glyph>
<glyph name="openbullet" format="2">
  <advance width="400"/>
  <unicode hex="25E6"/>
  <outline>
    <contour>
      <point x="100.0" y="500.0" type="line"/>
      <point x="300.0" y="500.0" type="line"/>
      <point x="300.0" y="450.0" type="line"/>
      <point x="350.0" y="450.0" type="line"/>
      <point x="350.0" y="250.0" type="line"/>
      <point x="300.0" y="250.0" type="line"/>
      <point x="300.0" y="200.0" type="line"/>
      <point x="100.0" y="200.0" type="line"/>
      <point x="100.0" y="250.0" type="line"/>
      <point x="50.0" y="250.0" type="line"/>
      <point x="50.0" y="450.0" type="line"/>
      <point x="100.0" y="450.0" type="line"/>
    </contour>
    <contour>
      <point x="250.0" y="400.0" type="line"/>
      <point x="150.0" y="400.0" type="line"/>
      <point x="150.0" y="300.0" type="line"/>
      <point x="250.0" y="300.0" type="line"/>
    </contour>
  </outline>
</glyph>
<glyph name="club" format="2">
  <advance width="800"/>
  <unicode hex="2663"/>
  <outline>
    <contour>
      <point x="250.0" y="0.0" type="line"/>
      <point x="250.0" y="100.0" type="line"/>
      <point x="350.0" y="100.0" type="line"/>
      <point x="350.0" y="300.0" type="line"/>
      <point x="300.0" y="300.0" type="line"/>
      <point x="300.0" y="250.0" type="line"/>
      <point x="250.0" y="250.0" type="line"/>
      <point x="250.0" y="200.0" type="line"/>
      <point x="100.0" y="200.0" type="line"/>
      <point x="100.0" y="250.0" type="line"/>
      <point x="50.0" y="250.0" type="line"/>
      <point x="50.0" y="450.0" type="line"/>
      <point x="100.0" y="450.0" type="line"/>
      <point x="100.0" y="500.0" type="line"/>
      <point x="250.0" y="500.0" type="line"/>
      <point x="250.0" y="650.0" type="line"/>
      <point x="300.0" y="650.0" type="line"/>
      <point x="300.0" y="700.0" type="line"/>
      <point x="500.0" y="700.0" type="line"/>
      <point x="500.0" y="650.0" type="line"/>
      <point x="550.0" y="650.0" type="line"/>
      <point x="550.0" y="500.0" type="line"/>
      <point x="700.0" y="500.0" type="line"/>
      <point x="700.0" y="450.0" type="line"/>
      <point x="750.0" y="450.0" type="line"/>
      <point x="750.0" y="250.0" type="line"/>
      <point x="700.0" y="250.0" type="line"/>
      <point x="700.0" y="200.0" type="line"/>
      <point x="550.0" y="200.0" type="line"/>
      <point x="550.0" y="250.0" type="line"/>
      <point x="500.0" y="250.0" type="line"/>
      <point x="500.0" y="300.0" type="line"/>
      <point x="450.0" y="300.0" type="line"/>
      <point x="450.0" y="100.0" type="line"/>
      <point x="550.0" y="100.0" type="line"/>
      <point x="550.0" y="0.0" type="line"/>
    </contour>
    <contour>
      <point x="450.0" y="400.0" type="line"/>
      <point x="500.0" y="400.0" type="line"/>
      <point x="500.0" y="450.0" type="line"/>
      <point x="450.0" y="450.0" type="line"/>
    </contour>
    <contour>
      <point x="350.0" y="400.0" type="line"/>
      <point x="350.0" y="450.0" type="line"/>
      <point x="300.0" y="450.0" type="line"/>
      <point x="300.0" y="400.0" type="line"/>
    </contour>
    <contour>
      <point x="550.0" y="500.0" type="line"/>
      <point x="500.0" y="500.0" type="line"/>
      <point x="500.0" y="450.0" type="line"/>
      <point x="550.0" y="450.0" type="line"/>
    </contour>
    <contour>
      <point x="250.0" y="500.0" type="line"/>
      <point x="250.0" y="450.0" type="line"/>
      <point x="300.0" y="450.0" type="line"/>
      <point x="300.0" y="500.0" type="line"/>
    </contour>
  </outline>
</glyph>
<glyph name="uni2D64" format="2">
  <advance width="400"/>
  <unicode hex="2D64"/>
  <outline>
    <contour>
      <point x="50.0" y="0.0" type="line"/>
      <point x="50.0" y="700.0" type="line"/>
      <point x="150.0" y="700.0" type="line"/>
      <point x="150.0" y="600.0" type="line"/>
      <point x="250.0" y="600.0" type="line"/>
      <point x="250.0" y="550.0" type="line"/>
      <point x="300.0" y="550.0" type="line"/>
      <point x="300.0" y="500.0" type="line"/>
      <point x="350.0" y="500.0" type="line"/>
      <point x="350.0" y="400.0" type="line"/>
      <point x="250.0" y="400.0" type="line"/>
      <point x="250.0" y="450.0" type="line"/>
      <point x="200.0" y="450.0" type="line"/>
      <point x="200.0" y="500.0" type="line"/>
      <point x="150.0" y="500.0" type="line"/>
      <point x="150.0" y="0.0" type="line"/>
    </contour>
  </outline>
</glyph>
<glyph name="uni2D70" format="2">
  <advance width="500"/>
  <unicode hex="2D70"/>
  <outline>
    <contour>
      <point x="50.0" y="-200.0" type="line"/>
      <point x="50.0" y="-100.0" type="line"/>
      <point x="200.0" y="-100.0" type="line"/>
      <point x="200.0" y="-50.0" type="line"/>
      <point x="250.0" y="-50.0" type="line"/>
      <point x="250.0" y="0.0" type="line"/>
      <point x="300.0" y="0.0" type="line"/>
      <point x="300.0" y="50.0" type="line"/>
      <point x="350.0" y="50.0" type="line"/>
      <point x="350.0" y="700.0" type="line"/>
      <point x="450.0" y="700.0" type="line"/>
      <point x="450.0" y="0.0" type="line"/>
      <point x="400.0" y="0.0" type="line"/>
      <point x="400.0" y="-50.0" type="line"/>
      <point x="350.0" y="-50.0" type="line"/>
      <point x="350.0" y="-100.0" type="line"/>
      <point x="300.0" y="-100.0" type="line"/>
      <point x="300.0" y="-150.0" type="line"/>
      <point x="250.0" y="-150.0" type="line"/>
      <point x="250.0" y="-200.0" type="line"/>
    </contour>
  </outline>
</glyph>
<glyph name="men_now-ar" format="2">
  <advance width="1000"/>
  <unicode hex="FB13"/>
  <outline>
    <contour>
      <point x="650.0" y="700.0" type="line"/>
      <point x="650.0" y="150.0" type="line"/>
      <point x="750.0" y="150.0" type="line"/>
      <point x="750.0" y="200.0" type="line"/>
      <point x="850.0" y="200.0" type="line"/>
      <point x="850.0" y="500.0" type="line"/>
      <point x="950.0" y="500.0" type="line"/>
      <point x="950.0" y="0.0" type="line"/>
      <point x="850.0" y="0.0" type="line"/>
      <point x="850.0" y="100.0" type="line"/>
      <point x="800.0" y="100.0" type="line"/>
      <point x="800.0" y="50.0" type="line"/>
      <point x="750.0" y="50.0" type="line"/>
      <point x="750.0" y="0.0" type="line"/>
      <point x="650.0" y="0.0" type="line"/>
      <point x="650.0" y="50.0" type="line"/>
      <point x="600.0" y="50.0" type="line"/>
      <point x="600.0" y="100.0" type="line"/>
      <point x="550.0" y="100.0" type="line"/>
      <point x="550.0" y="600.0" type="line"/>
      <point x="450.0" y="600.0" type="line"/>
      <point x="450.0" y="0.0" type="line"/>
      <point x="350.0" y="0.0" type="line"/>
      <point x="350.0" y="100.0" type="line"/>
      <point x="300.0" y="100.0" type="line"/>
      <point x="300.0" y="50.0" type="line"/>
      <point x="250.0" y="50.0" type="line"/>
      <point x="250.0" y="0.0" type="line"/>
      <point x="150.0" y="0.0" type="line"/>
      <point x="150.0" y="50.0" type="line"/>
      <point x="100.0" y="50.0" type="line"/>
      <point x="100.0" y="100.0" type="line"/>
      <point x="50.0" y="100.0" type="line"/>
      <point x="50.0" y="500.0" type="line"/>
      <point x="150.0" y="500.0" type="line"/>
      <point x="150.0" y="150.0" type="line"/>
      <point x="250.0" y="150.0" type="line"/>
      <point x="250.0" y="200.0" type="line"/>
      <point x="350.0" y="200.0" type="line"/>
      <point x="350.0" y="700.0" type="line"/>
    </contour>
  </outline>
</glyph>
<glyph name="men_ini-ar" format="2">
  <advance width="1200"/>
  <unicode hex="FB15"/>
  <outline>
    <contour>
      <point x="750.0" y="700.0" type="line"/>
      <point x="750.0" y="400.0" type="line"/>
      <point x="800.0" y="400.0" type="line"/>
      <point x="800.0" y="450.0" type="line"/>
      <point x="850.0" y="450.0" type="line"/>
      <point x="850.0" y="500.0" type="line"/>
      <point x="1050.0" y="500.0" type="line"/>
      <point x="1050.0" y="450.0" type="line"/>
      <point x="1100.0" y="450.0" type="line"/>
      <point x="1100.0" y="400.0" type="line"/>
      <point x="1150.0" y="400.0" type="line"/>
      <point x="1150.0" y="0.0" type="line"/>
      <point x="1050.0" y="0.0" type="line"/>
      <point x="1050.0" y="350.0" type="line"/>
      <point x="1000.0" y="350.0" type="line"/>
      <point x="1000.0" y="400.0" type="line"/>
      <point x="900.0" y="400.0" type="line"/>
      <point x="900.0" y="350.0" type="line"/>
      <point x="850.0" y="350.0" type="line"/>
      <point x="850.0" y="300.0" type="line"/>
      <point x="750.0" y="300.0" type="line"/>
      <point x="750.0" y="-200.0" type="line"/>
      <point x="650.0" y="-200.0" type="line"/>
      <point x="650.0" y="600.0" type="line"/>
      <point x="550.0" y="600.0" type="line"/>
      <point x="550.0" y="0.0" type="line"/>
      <point x="450.0" y="0.0" type="line"/>
      <point x="450.0" y="100.0" type="line"/>
      <point x="400.0" y="100.0" type="line"/>
      <point x="400.0" y="50.0" type="line"/>
      <point x="350.0" y="50.0" type="line"/>
      <point x="350.0" y="0.0" type="line"/>
      <point x="150.0" y="0.0" type="line"/>
      <point x="150.0" y="50.0" type="line"/>
      <point x="100.0" y="50.0" type="line"/>
      <point x="100.0" y="100.0" type="line"/>
      <point x="50.0" y="100.0" type="line"/>
      <point x="50.0" y="500.0" type="line"/>
      <point x="150.0" y="500.0" type="line"/>
      <point x="150.0" y="150.0" type="line"/>
      <point x="200.0" y="150.0" type="line"/>
      <point x="200.0" y="100.0" type="line"/>
      <point x="300.0" y="100.0" type="line"/>
      <point x="300.0" y="150.0" type="line"/>
      <point x="350.0" y="150.0" type="line"/>
      <point x="350.0" y="200.0" type="line"/>
      <point x="450.0" y="200.0" type="line"/>
      <point x="450.0" y="700.0" type="line"/>
    </contour>
  </outline>
</glyph>
<glyph name="co-ar.sc" format="2">
  <advance width="600"/>
  <outline>
    <contour>
      <point x="150.0" y="0.0" type="line"/>
      <point x="150.0" y="100.0" type="line"/>
      <point x="400.0" y="100.0" type="line"/>
      <point x="400.0" y="200.0" type="line"/>
      <point x="150.0" y="200.0" type="line"/>
      <point x="150.0" y="250.0" type="line"/>
      <point x="100.0" y="250.0" type="line"/>
      <point x="100.0" y="300.0" type="line"/>
      <point x="50.0" y="300.0" type="line"/>
      <point x="50.0" y="400.0" type="line"/>
      <point x="100.0" y="400.0" type="line"/>
      <point x="100.0" y="450.0" type="line"/>
      <point x="150.0" y="450.0" type="line"/>
      <point x="150.0" y="500.0" type="line"/>
      <point x="450.0" y="500.0" type="line"/>
      <point x="450.0" y="450.0" type="line"/>
      <point x="500.0" y="450.0" type="line"/>
      <point x="500.0" y="400.0" type="line"/>
      <point x="550.0" y="400.0" type="line"/>
      <point x="550.0" y="300.0" type="line"/>
      <point x="500.0" y="300.0" type="line"/>
      <point x="500.0" y="200.0" type="line"/>
      <point x="550.0" y="200.0" type="line"/>
      <point x="550.0" y="100.0" type="line"/>
      <point x="500.0" y="100.0" type="line"/>
      <point x="500.0" y="50.0" type="line"/>
      <point x="450.0" y="50.0" type="line"/>
      <point x="450.0" y="0.0" type="line"/>
    </contour>
    <contour>
      <point x="200.0" y="300.0" type="line"/>
      <point x="400.0" y="300.0" type="line"/>
      <point x="400.0" y="400.0" type="line"/>
      <point x="200.0" y="400.0" type="line"/>
    </contour>
  </outline>
</glyph>
<glyph name="uhorn.sc" format="2">
  <advance width="800"/>
  <outline>
    <contour>
      <point x="750.0" y="500.0" type="line"/>
      <point x="750.0" y="300.0" type="line"/>
      <point x="700.0" y="300.0" type="line"/>
      <point x="700.0" y="250.0" type="line"/>
      <point x="650.0" y="250.0" type="line"/>
      <point x="650.0" y="200.0" type="line"/>
      <point x="550.0" y="200.0" type="line"/>
      <point x="550.0" y="100.0" type="line"/>
      <point x="500.0" y="100.0" type="line"/>
      <point x="500.0" y="50.0" type="line"/>
      <point x="450.0" y="50.0" type="line"/>
      <point x="450.0" y="0.0" type="line"/>
      <point x="150.0" y="0.0" type="line"/>
      <point x="150.0" y="50.0" type="line"/>
      <point x="100.0" y="50.0" type="line"/>
      <point x="100.0" y="100.0" type="line"/>
      <point x="50.0" y="100.0" type="line"/>
      <point x="50.0" y="500.0" type="line"/>
      <point x="150.0" y="500.0" type="line"/>
      <point x="150.0" y="150.0" type="line"/>
      <point x="200.0" y="150.0" type="line"/>
      <point x="200.0" y="100.0" type="line"/>
      <point x="400.0" y="100.0" type="line"/>
      <point x="400.0" y="150.0" type="line"/>
      <point x="450.0" y="150.0" type="line"/>
      <point x="450.0" y="500.0" type="line"/>
      <point x="550.0" y="500.0" type="line"/>
      <point x="550.0" y="300.0" type="line"/>
      <point x="600.0" y="300.0" type="line"/>
      <point x="600.0" y="350.0" type="line"/>
      <point x="650.0" y="350.0" type="line"/>
      <point x="650.0" y="500.0" type="line"/>
    </contour>
  </outline>
</glyph>
